999
dxfrw 0.6.3
  0
SECTION
  2
HEADER
  9
$ACADVER
  1
AC1021
  9
$DWGCODEPAGE
  3
ANSI_1252
  9
$INSBASE
 10
0
 20
0
 30
0
  9
$EXTMIN
 10
-8.84500000000001
 20
-11.175
 30
0
  9
$EXTMAX
 10
9.493415437224989
 20
4e-16
 30
0
  9
$LIMMIN
 10
-12.65933872148573
 20
-12.04531249999999
  9
$LIMMAX
 10
3.798439999999988
 20
0.05625
  9
$ORTHOMODE
 70
    0
  9
$REGENMODE
 70
    1
  9
$FILLMODE
 70
    1
  9
$QTEXTMODE
 70
    0
  9
$MIRRTEXT
 70
    1
  9
$LTSCALE
 40
1
  9
$ATTMODE
 70
    1
  9
$TEXTSIZE
 40
0.2
  9
$TRACEWID
 40
0.05
  9
$TEXTSTYLE
  7
Standard
  9
$CLAYER
  8
0
  9
$CELTYPE
  6
ByLayer
  9
$CECOLOR
 62
  256
  9
$CELTSCALE
 40
1
  9
$DISPSILH
 70
    0
  9
$DIMSCALE
 40
0.01
  9
$DIMASZ
 40
0.18
  9
$DIMEXO
 40
0.0625
  9
$DIMDLI
 40
0.38
  9
$DIMRND
 40
0
  9
$DIMDLE
 40
0
  9
$DIMEXE
 40
0.18
  9
$DIMTP
 40
0
  9
$DIMTM
 40
0
  9
$DIMTXT
 40
0.18
  9
$DIMCEN
 40
0.09
  9
$DIMTSZ
 40
0
  9
$DIMTOL
 70
    0
  9
$DIMLIM
 70
    0
  9
$DIMTIH
 70
    1
  9
$DIMTOH
 70
    1
  9
$DIMSE1
 70
    0
  9
$DIMSE2
 70
    0
  9
$DIMTAD
 70
    0
  9
$DIMZIN
 70
    0
  9
$DIMBLK
  1

  9
$DIMASO
 70
    1
  9
$DIMSHO
 70
    1
  9
$DIMPOST
  1

  9
$DIMAPOST
  1

  9
$DIMALT
 70
    0
  9
$DIMALTD
 70
    2
  9
$DIMALTF
 40
25.4
  9
$DIMLFAC
 40
1
  9
$DIMTOFL
 70
    0
  9
$DIMTVP
 40
0
  9
$DIMTIX
 70
    0
  9
$DIMSOXD
 70
    0
  9
$DIMSAH
 70
    0
  9
$DIMBLK1
  1

  9
$DIMBLK2
  1

  9
$DIMSTYLE
  2
Standard
  9
$DIMCLRD
 70
    0
  9
$DIMCLRE
 70
    0
  9
$DIMCLRT
 70
    0
  9
$DIMTFAC
 40
1
  9
$DIMGAP
 40
0.09
  9
$DIMJUST
 70
    0
  9
$DIMSD1
 70
    0
  9
$DIMSD2
 70
    0
  9
$DIMTOLJ
 70
    1
  9
$DIMTZIN
 70
    0
  9
$DIMALTZ
 70
    0
  9
$DIMALTTZ
 70
    0
  9
$DIMUPT
 70
    0
  9
$DIMDEC
 70
    4
  9
$DIMTDEC
 70
    4
  9
$DIMALTU
 70
    2
  9
$DIMALTTD
 70
    2
  9
$DIMTXSTY
  7
standard
  9
$DIMAUNIT
 70
    0
  9
$DIMADEC
 70
    0
  9
$DIMALTRND
 40
0
  9
$DIMAZIN
 70
    0
  9
$DIMDSEP
 70
    0
  9
$DIMATFIT
 70
    3
  9
$DIMFRAC
 70
    0
  9
$DIMLDRBLK
  1

  9
$DIMLUNIT
 70
    2
  9
$DIMLWD
 70
   -2
  9
$DIMLWE
 70
   -2
  9
$DIMTMOVE
 70
    0
  9
$DIMFXL
 40
1
  9
$DIMFXLON
 70
    0
  9
$DIMJOGANG
 40
0.7853981633974483
  9
$DIMTFILL
 70
    0
  9
$DIMTFILLCLR
 70
    0
  9
$DIMARCSYM
 70
    0
  9
$DIMLTYPE
  6

  9
$DIMLTEX1
  6

  9
$DIMLTEX2
  6

  9
$LUNITS
 70
    1
  9
$LUPREC
 70
    4
  9
$SKETCHINC
 40
0.1
  9
$FILLETRAD
 40
0
  9
$AUNITS
 70
    0
  9
$AUPREC
 70
    0
  9
$MENU
  1
.
  9
$ELEVATION
 40
0
  9
$PELEVATION
 40
0
  9
$THICKNESS
 40
0
  9
$LIMCHECK
 70
    0
  9
$CHAMFERA
 40
0
  9
$CHAMFERB
 40
0
  9
$CHAMFERC
 40
0
  9
$CHAMFERD
 40
0
  9
$SKPOLY
 70
    0
  9
$USRTIMER
 70
    1
  9
$ANGBASE
 50
0
  9
$ANGDIR
 70
    0
  9
$PDMODE
 70
    0
  9
$PDSIZE
 40
0
  9
$PLINEWID
 40
0
  9
$SPLFRAME
 70
    0
  9
$SPLINETYPE
 70
    6
  9
$SPLINESEGS
 70
    8
  9
$HANDSEED
  5
20000
  9
$SURFTAB1
 70
    6
  9
$SURFTAB2
 70
    6
  9
$SURFTYPE
 70
    6
  9
$SURFU
 70
    6
  9
$SURFV
 70
    6
  9
$UCSBASE
  2

  9
$UCSNAME
  2

  9
$UCSORG
 10
0
 20
0
 30
0
  9
$UCSXDIR
 10
1
 20
0
 30
0
  9
$UCSYDIR
 10
0
 20
1
 30
0
  9
$UCSORTHOREF
  2

  9
$UCSORTHOVIEW
 70
    0
  9
$UCSORGTOP
 10
0
 20
0
 30
0
  9
$UCSORGBOTTOM
 10
0
 20
0
 30
0
  9
$UCSORGLEFT
 10
0
 20
0
 30
0
  9
$UCSORGRIGHT
 10
0
 20
0
 30
0
  9
$UCSORGFRONT
 10
0
 20
0
 30
0
  9
$UCSORGBACK
 10
0
 20
0
 30
0
  9
$PUCSBASE
  2

  9
$PUCSNAME
  2

  9
$PUCSORG
 10
0
 20
0
 30
0
  9
$PUCSXDIR
 10
1
 20
0
 30
0
  9
$PUCSYDIR
 10
0
 20
1
 30
0
  9
$PUCSORTHOREF
  2

  9
$PUCSORTHOVIEW
 70
    0
  9
$PUCSORGTOP
 10
0
 20
0
 30
0
  9
$PUCSORGBOTTOM
 10
0
 20
0
 30
0
  9
$PUCSORGLEFT
 10
0
 20
0
 30
0
  9
$PUCSORGRIGHT
 10
0
 20
0
 30
0
  9
$PUCSORGFRONT
 10
0
 20
0
 30
0
  9
$PUCSORGBACK
 10
0
 20
0
 30
0
  9
$USERI1
 70
    0
  9
$USERI2
 70
    0
  9
$USERI3
 70
    0
  9
$USERI4
 70
    0
  9
$USERI5
 70
    0
  9
$USERR1
 40
0
  9
$USERR2
 40
0
  9
$USERR3
 40
0
  9
$USERR4
 40
0
  9
$USERR5
 40
0
  9
$WORLDVIEW
 70
    1
  9
$SHADEDGE
 70
    3
  9
$SHADEDIF
 70
   70
  9
$TILEMODE
 70
    1
  9
$MAXACTVP
 70
   64
  9
$PINSBASE
 10
0.2554211178122447
 20
0.3838328195226418
 30
0
  9
$PLIMCHECK
 70
    0
  9
$PEXTMIN
 10
1e+20
 20
1e+20
 30
1e+20
  9
$PEXTMAX
 10
-1e+20
 20
-1e+20
 30
-1e+20
  9
$GRIDMODE
 70
    1
  9
$SNAPSTYLE
 70
    0
  9
$GRIDUNIT
 10
0
 20
0
  9
$PLIMMIN
 10
0
 20
0
  9
$PLIMMAX
 10
0.297
 20
0.42
  9
$UNITMODE
 70
    0
  9
$VISRETAIN
 70
    1
  9
$PLINEGEN
 70
    0
  9
$PSLTSCALE
 70
    1
  9
$TREEDEPTH
 70
 3020
  9
$CMLSTYLE
  2
Standard
  9
$CMLJUST
 70
    0
  9
$CMLSCALE
 40
1
  9
$PROXYGRAPHICS
 70
    1
  9
$MEASUREMENT
 70
    1
  9
$CELWEIGHT
370
   -1
  9
$ENDCAPS
280
    0
  9
$JOINSTYLE
280
    0
  9
$LWDISPLAY
290
    1
  9
$INSUNITS
 70
    6
  9
$HYPERLINKBASE
  1

  9
$STYLESHEET
  1

  9
$XEDIT
290
    1
  9
$CEPSNTYPE
380
    0
  9
$PSTYLEMODE
290
    1
  9
$EXTNAMES
290
    1
  9
$PSVPSCALE
 40
0.025
  9
$OLESTARTUP
290
    0
  9
$SORTENTS
280
  127
  9
$INDEXCTL
280
    0
  9
$HIDETEXT
280
    1
  9
$XCLIPFRAME
290
    0
  9
$HALOGAP
280
    0
  9
$OBSCOLOR
 70
  257
  9
$OBSLTYPE
280
    0
  9
$INTERSECTIONDISPLAY
280
    0
  9
$INTERSECTIONCOLOR
 70
  257
  9
$DIMASSOC
280
    2
  9
$PROJECTNAME
  1

  9
$CAMERADISPLAY
290
    0
  9
$LENSLENGTH
 40
50
  9
$CAMERAHEIGHT
 40
0
  9
$STEPSPERSEC
 40
2
  9
$STEPSIZE
 40
6
  9
$3DDWFPREC
 40
2
  9
$PSOLWIDTH
 40
0.25
  9
$PSOLHEIGHT
 40
4
  9
$LOFTANG1
 40
1.570796326794897
  9
$LOFTANG2
 40
1.570796326794897
  9
$LOFTMAG1
 40
0
  9
$LOFTMAG2
 40
0
  9
$LOFTPARAM
 70
    7
  9
$LOFTNORMALS
280
    1
  9
$LATITUDE
 40
37.795
  9
$LONGITUDE
 40
-122.394
  9
$NORTHDIRECTION
 40
0
  9
$TIMEZONE
 70
-8000
  9
$LIGHTGLYPHDISPLAY
280
    1
  9
$TILEMODELIGHTSYNCH
280
    1
  9
$SOLIDHIST
280
    0
  9
$SHOWHIST
280
    1
  9
$DWFFRAME
280
    2
  9
$DGNFRAME
280
    2
  9
$REALWORLDSCALE
290
    1
  9
$INTERFERECOLOR
 62
  256
  9
$CSHADOW
280
    0
  9
$SHADOWPLANELOCATION
 40
0
  0
ENDSEC
  0
SECTION
  2
CLASSES
  0
ENDSEC
  0
SECTION
  2
TABLES
  0
TABLE
  2
VPORT
  5
8
330
0
100
AcDbSymbolTable
 70
    1
  0
VPORT
  5
31
330
2
100
AcDbSymbolTableRecord
100
AcDbViewportTableRecord
  2
*ACTIVE
 70
    0
 10
0
 20
0
 11
1
 21
1
 12
8.257016240461658
 22
0.7895533962653428
 13
0
 23
0
 14
10
 24
10
 15
10
 25
10
 16
0
 26
0
 36
1
 17
0
 27
0
 37
0
 40
16.76136246047631
 41
1.803632236095346
 42
50
 43
0
 44
0
 50
0
 51
0
 71
    0
 72
  100
 73
    1
 74
    3
 75
    0
 76
    1
 77
    0
 78
    0
281
    0
 65
    1
110
0
120
0
130
0
111
1
121
0
131
0
112
0
122
1
132
0
 79
    0
146
0
348
10020
 60
    7
 61
    5
292
1
282
    1
141
0
142
0
 63
  250
421
3358443
  0
ENDTAB
  0
TABLE
  2
LTYPE
  5
5
330
0
100
AcDbSymbolTable
 70
    4
  0
LTYPE
  5
14
330
5
100
AcDbSymbolTableRecord
100
AcDbLinetypeTableRecord
  2
ByBlock
 70
    0
  3

 72
   65
 73
    0
 40
0
  0
LTYPE
  5
15
330
5
100
AcDbSymbolTableRecord
100
AcDbLinetypeTableRecord
  2
ByLayer
 70
    0
  3

 72
   65
 73
    0
 40
0
  0
LTYPE
  5
16
330
5
100
AcDbSymbolTableRecord
100
AcDbLinetypeTableRecord
  2
Continuous
 70
    0
  3
Solid line
 72
   65
 73
    0
 40
0
  0
LTYPE
  5
32
330
5
100
AcDbSymbolTableRecord
100
AcDbLinetypeTableRecord
  2
DOT
 70
    0
  3
Dot . . . . . . . . . . . . . . . . . . . . . .
 72
   65
 73
    2
 40
6.35
 49
0
 74
    0
 49
-6.35
 74
    0
  0
LTYPE
  5
33
330
5
100
AcDbSymbolTableRecord
100
AcDbLinetypeTableRecord
  2
DOTTINY
 70
    0
  3
Dot (.15x) .....................................
 72
   65
 73
    2
 40
0.9525
 49
0
 74
    0
 49
-0.9525
 74
    0
  0
LTYPE
  5
34
330
5
100
AcDbSymbolTableRecord
100
AcDbLinetypeTableRecord
  2
DOT2
 70
    0
  3
Dot (.5x) .....................................
 72
   65
 73
    2
 40
3.175
 49
0
 74
    0
 49
-3.175
 74
    0
  0
LTYPE
  5
35
330
5
100
AcDbSymbolTableRecord
100
AcDbLinetypeTableRecord
  2
DOTX2
 70
    0
  3
Dot (2x) .  .  .  .  .  .  .  .  .  .  .  .  .
 72
   65
 73
    2
 40
12.7
 49
0
 74
    0
 49
-12.7
 74
    0
  0
LTYPE
  5
36
330
5
100
AcDbSymbolTableRecord
100
AcDbLinetypeTableRecord
  2
DASHED
 70
    0
  3
Dashed _ _ _ _ _ _ _ _ _ _ _ _ _ _ _ _ _
 72
   65
 73
    2
 40
19.05
 49
12.7
 74
    0
 49
-6.35
 74
    0
  0
LTYPE
  5
37
330
5
100
AcDbSymbolTableRecord
100
AcDbLinetypeTableRecord
  2
DASHEDTINY
 70
    0
  3
Dashed (.15x) _ _ _ _ _ _ _ _ _ _ _ _ _ _ _ _ _
 72
   65
 73
    2
 40
2.8575
 49
1.905
 74
    0
 49
-0.9525
 74
    0
  0
LTYPE
  5
38
330
5
100
AcDbSymbolTableRecord
100
AcDbLinetypeTableRecord
  2
DASHED2
 70
    0
  3
Dashed (.5x) _ _ _ _ _ _ _ _ _ _ _ _ _ _ _ _ _
 72
   65
 73
    2
 40
9.524999999999999
 49
6.35
 74
    0
 49
-3.175
 74
    0
  0
LTYPE
  5
39
330
5
100
AcDbSymbolTableRecord
100
AcDbLinetypeTableRecord
  2
DASHEDX2
 70
    0
  3
Dashed (2x) ____  ____  ____  ____  ____  ___
 72
   65
 73
    2
 40
38.09999999999999
 49
25.4
 74
    0
 49
-12.7
 74
    0
  0
LTYPE
  5
3A
330
5
100
AcDbSymbolTableRecord
100
AcDbLinetypeTableRecord
  2
DASHDOT
 70
    0
  3
Dash dot __ . __ . __ . __ . __ . __ . __ . __
 72
   65
 73
    4
 40
25.4
 49
12.7
 74
    0
 49
-6.35
 74
    0
 49
0
 74
    0
 49
-6.35
 74
    0
  0
LTYPE
  5
3B
330
5
100
AcDbSymbolTableRecord
100
AcDbLinetypeTableRecord
  2
DASHDOTTINY
 70
    0
  3
Dash dot (.15x) _._._._._._._._._._._._._._._.
 72
   65
 73
    4
 40
3.81
 49
1.905
 74
    0
 49
-0.9525
 74
    0
 49
0
 74
    0
 49
-0.9525
 74
    0
  0
LTYPE
  5
3C
330
5
100
AcDbSymbolTableRecord
100
AcDbLinetypeTableRecord
  2
DASHDOT2
 70
    0
  3
Dash dot (.5x) _._._._._._._._._._._._._._._.
 72
   65
 73
    4
 40
12.7
 49
6.35
 74
    0
 49
-3.175
 74
    0
 49
0
 74
    0
 49
-3.175
 74
    0
  0
LTYPE
  5
3D
330
5
100
AcDbSymbolTableRecord
100
AcDbLinetypeTableRecord
  2
DASHDOTX2
 70
    0
  3
Dash dot (2x) ____  .  ____  .  ____  .  ___
 72
   65
 73
    4
 40
50.8
 49
25.4
 74
    0
 49
-12.7
 74
    0
 49
0
 74
    0
 49
-12.7
 74
    0
  0
LTYPE
  5
3E
330
5
100
AcDbSymbolTableRecord
100
AcDbLinetypeTableRecord
  2
DIVIDE
 70
    0
  3
Divide ____ . . ____ . . ____ . . ____ . . ____
 72
   65
 73
    6
 40
31.75
 49
12.7
 74
    0
 49
-6.35
 74
    0
 49
0
 74
    0
 49
-6.35
 74
    0
 49
0
 74
    0
 49
-6.35
 74
    0
  0
LTYPE
  5
3F
330
5
100
AcDbSymbolTableRecord
100
AcDbLinetypeTableRecord
  2
DIVIDETINY
 70
    0
  3
Divide (.15x) __..__..__..__..__..__..__..__.._
 72
   65
 73
    6
 40
4.7625
 49
1.905
 74
    0
 49
-0.9525
 74
    0
 49
0
 74
    0
 49
-0.9525
 74
    0
 49
0
 74
    0
 49
-0.9525
 74
    0
  0
LTYPE
  5
40
330
5
100
AcDbSymbolTableRecord
100
AcDbLinetypeTableRecord
  2
DIVIDE2
 70
    0
  3
Divide (.5x) __..__..__..__..__..__..__..__.._
 72
   65
 73
    6
 40
15.875
 49
6.35
 74
    0
 49
-3.175
 74
    0
 49
0
 74
    0
 49
-3.175
 74
    0
 49
0
 74
    0
 49
-3.175
 74
    0
  0
LTYPE
  5
41
330
5
100
AcDbSymbolTableRecord
100
AcDbLinetypeTableRecord
  2
DIVIDEX2
 70
    0
  3
Divide (2x) ________  .  .  ________  .  .  _
 72
   65
 73
    6
 40
63.5
 49
25.4
 74
    0
 49
-12.7
 74
    0
 49
0
 74
    0
 49
-12.7
 74
    0
 49
0
 74
    0
 49
-12.7
 74
    0
  0
LTYPE
  5
42
330
5
100
AcDbSymbolTableRecord
100
AcDbLinetypeTableRecord
  2
BORDER
 70
    0
  3
Border __ __ . __ __ . __ __ . __ __ . __ __ .
 72
   65
 73
    6
 40
44.45
 49
12.7
 74
    0
 49
-6.35
 74
    0
 49
12.7
 74
    0
 49
-6.35
 74
    0
 49
0
 74
    0
 49
-6.35
 74
    0
  0
LTYPE
  5
43
330
5
100
AcDbSymbolTableRecord
100
AcDbLinetypeTableRecord
  2
BORDERTINY
 70
    0
  3
Border (.15x) __.__.__.__.__.__.__.__.__.__.__.
 72
   65
 73
    6
 40
6.6675
 49
1.905
 74
    0
 49
-0.9525
 74
    0
 49
1.905
 74
    0
 49
-0.9525
 74
    0
 49
0
 74
    0
 49
-0.9525
 74
    0
  0
LTYPE
  5
44
330
5
100
AcDbSymbolTableRecord
100
AcDbLinetypeTableRecord
  2
BORDER2
 70
    0
  3
Border (.5x) __.__.__.__.__.__.__.__.__.__.__.
 72
   65
 73
    6
 40
22.225
 49
6.35
 74
    0
 49
-3.175
 74
    0
 49
6.35
 74
    0
 49
-3.175
 74
    0
 49
0
 74
    0
 49
-3.175
 74
    0
  0
LTYPE
  5
45
330
5
100
AcDbSymbolTableRecord
100
AcDbLinetypeTableRecord
  2
BORDERX2
 70
    0
  3
Border (2x) ____  ____  .  ____  ____  .  ___
 72
   65
 73
    6
 40
88.89999999999999
 49
25.4
 74
    0
 49
-12.7
 74
    0
 49
25.4
 74
    0
 49
-12.7
 74
    0
 49
0
 74
    0
 49
-12.7
 74
    0
  0
LTYPE
  5
46
330
5
100
AcDbSymbolTableRecord
100
AcDbLinetypeTableRecord
  2
CENTER
 70
    0
  3
Center ____ _ ____ _ ____ _ ____ _ ____ _ ____
 72
   65
 73
    4
 40
50.8
 49
31.75
 74
    0
 49
-6.35
 74
    0
 49
6.35
 74
    0
 49
-6.35
 74
    0
  0
LTYPE
  5
47
330
5
100
AcDbSymbolTableRecord
100
AcDbLinetypeTableRecord
  2
CENTERTINY
 70
    0
  3
Center (.15x) ___ _ ___ _ ___ _ ___ _ ___ _ ___
 72
   65
 73
    4
 40
7.619999999999999
 49
4.7625
 74
    0
 49
-0.9525
 74
    0
 49
0.9525
 74
    0
 49
-0.9525
 74
    0
  0
LTYPE
  5
48
330
5
100
AcDbSymbolTableRecord
100
AcDbLinetypeTableRecord
  2
CENTER2
 70
    0
  3
Center (.5x) ___ _ ___ _ ___ _ ___ _ ___ _ ___
 72
   65
 73
    4
 40
28.575
 49
19.05
 74
    0
 49
-3.175
 74
    0
 49
3.175
 74
    0
 49
-3.175
 74
    0
  0
LTYPE
  5
49
330
5
100
AcDbSymbolTableRecord
100
AcDbLinetypeTableRecord
  2
CENTERX2
 70
    0
  3
Center (2x) ________  __  ________  __  _____
 72
   65
 73
    4
 40
101.6
 49
63.5
 74
    0
 49
-12.7
 74
    0
 49
12.7
 74
    0
 49
-12.7
 74
    0
  0
ENDTAB
  0
TABLE
  2
LAYER
  5
2
330
0
100
AcDbSymbolTable
 70
    1
  0
LAYER
  5
10
330
2
100
AcDbSymbolTableRecord
100
AcDbLayerTableRecord
  2
0
 70
    0
 62
    7
  6
CONTINUOUS
370
   -3
390
F
  0
LAYER
  5
4A
330
2
100
AcDbSymbolTableRecord
100
AcDbLayerTableRecord
  2
010 Aussenwände
 70
    0
 62
    7
  6
CONTINUOUS
370
   -3
390
F
  0
LAYER
  5
4B
330
2
100
AcDbSymbolTableRecord
100
AcDbLayerTableRecord
  2
010 Aussenwände Bauteilschraffuren
 70
    0
 62
    7
  6
CONTINUOUS
370
   -3
390
F
  0
LAYER
  5
4C
330
2
100
AcDbSymbolTableRecord
100
AcDbLayerTableRecord
  2
010 Fenster
 70
    0
 62
    7
  6
CONTINUOUS
370
   -3
390
F
  0
LAYER
  5
4D
330
2
100
AcDbSymbolTableRecord
100
AcDbLayerTableRecord
  2
010 Türen
 70
    0
 62
    7
  6
CONTINUOUS
370
   -3
390
F
  0
LAYER
  5
4E
330
2
100
AcDbSymbolTableRecord
100
AcDbLayerTableRecord
  2
015 Innenwände
 70
    0
 62
    7
  6
CONTINUOUS
370
   -3
390
F
  0
LAYER
  5
4F
330
2
100
AcDbSymbolTableRecord
100
AcDbLayerTableRecord
  2
015 Innenwände Bauteilschraffuren
 70
    0
 62
    7
  6
CONTINUOUS
370
   -3
390
F
  0
LAYER
  5
50
330
2
100
AcDbSymbolTableRecord
100
AcDbLayerTableRecord
  2
020 Stützen
 70
    0
 62
    7
  6
CONTINUOUS
370
   -3
390
F
  0
LAYER
  5
51
330
2
100
AcDbSymbolTableRecord
100
AcDbLayerTableRecord
  2
020 Stützen Bauteilschraffuren
 70
    0
 62
    7
  6
CONTINUOUS
370
   -3
390
F
  0
LAYER
  5
52
330
2
100
AcDbSymbolTableRecord
100
AcDbLayerTableRecord
  2
020 Stützen Bauteilschraffuren Neu
 70
    0
 62
    7
  6
CONTINUOUS
370
   -3
390
F
  0
LAYER
  5
53
330
2
100
AcDbSymbolTableRecord
100
AcDbLayerTableRecord
  2
020 Stützen Neu
 70
    0
 62
    7
  6
CONTINUOUS
370
   -3
390
F
  0
LAYER
  5
54
330
2
100
AcDbSymbolTableRecord
100
AcDbLayerTableRecord
  2
035 Decken
 70
    0
 62
    7
  6
CONTINUOUS
370
   -3
390
F
  0
LAYER
  5
55
330
2
100
AcDbSymbolTableRecord
100
AcDbLayerTableRecord
  2
035 Decken Neu
 70
    0
 62
    7
  6
CONTINUOUS
370
   -3
390
F
  0
LAYER
  5
56
330
2
100
AcDbSymbolTableRecord
100
AcDbLayerTableRecord
  2
036 Deckenbalken Neu
 70
    0
 62
    7
  6
CONTINUOUS
370
   -3
390
F
  0
LAYER
  5
57
330
2
100
AcDbSymbolTableRecord
100
AcDbLayerTableRecord
  2
080 Raumdefinitionen innen Kontur
 70
    0
 62
    7
  6
CONTINUOUS
370
   -3
390
F
  0
LAYER
  5
58
330
2
100
AcDbSymbolTableRecord
100
AcDbLayerTableRecord
  2
080 Raumdefinitionen innen Text
 70
    0
 62
    7
  6
CONTINUOUS
370
   -3
390
F
  0
LAYER
  5
59
330
2
100
AcDbSymbolTableRecord
100
AcDbLayerTableRecord
  2
110 Bemassungen Ausführung
 70
    0
 62
    7
  6
CONTINUOUS
370
   -3
390
F
  0
LAYER
  5
5A
330
2
100
AcDbSymbolTableRecord
100
AcDbLayerTableRecord
  2
201 Schnittlinien
 70
    0
 62
    7
  6
CONTINUOUS
370
   -3
390
F
  0
LAYER
  5
5B
330
2
100
AcDbSymbolTableRecord
100
AcDbLayerTableRecord
  2
910 Layout Planrahmen
 70
    0
 62
    7
  6
CONTINUOUS
370
   -3
390
F
  0
LAYER
  5
5C
330
2
100
AcDbSymbolTableRecord
100
AcDbLayerTableRecord
  2
PDF2_EL_Legende
 70
    0
 62
   32
420
14511616
  6
CONTINUOUS
370
   -3
390
F
  0
LAYER
  5
5D
330
2
100
AcDbSymbolTableRecord
100
AcDbLayerTableRecord
  2
PDF2_Text
 70
    0
 62
    7
  6
CONTINUOUS
370
   -3
390
F
  0
LAYER
  5
5E
330
2
100
AcDbSymbolTableRecord
100
AcDbLayerTableRecord
  2
_Bus Decke
 70
    0
 62
   42
  6
CONTINUOUS
370
   18
390
F
  0
ENDTAB
  0
TABLE
  2
STYLE
  5
3
330
0
100
AcDbSymbolTable
 70
    3
  0
STYLE
  5
5F
330
2
100
AcDbSymbolTableRecord
100
AcDbTextStyleTableRecord
  2
azomix
 70
    0
 40
0
 41
1
 50
0
 71
    0
 42
1
  3
azomix
  4

  0
STYLE
  5
60
330
2
100
AcDbSymbolTableRecord
100
AcDbTextStyleTableRecord
  2
PDF ArialMT
 70
    0
 40
0
 41
1
 50
0
 71
    0
 42
1
  3
PDF ArialMT
  4

  0
STYLE
  5
61
330
2
100
AcDbSymbolTableRecord
100
AcDbTextStyleTableRecord
  2
standard
 70
    0
 40
0
 41
1
 50
0
 71
    0
 42
1
  3
standard
  4

  0
STYLE
  5
62
330
2
100
AcDbSymbolTableRecord
100
AcDbTextStyleTableRecord
  2
PDF Swiss721BT-RomanExtended
 70
    0
 40
0
 41
1
 50
0
 71
    0
 42
1
  3
PDF Swiss721BT-RomanExtended
  4

  0
ENDTAB
  0
TABLE
  2
VIEW
  5
6
330
0
100
AcDbSymbolTable
 70
    0
  0
ENDTAB
  0
TABLE
  2
UCS
  5
7
330
0
100
AcDbSymbolTable
 70
    0
  0
ENDTAB
  0
TABLE
  2
APPID
  5
9
330
0
100
AcDbSymbolTable
 70
    1
  0
APPID
  5
12
330
9
100
AcDbSymbolTableRecord
100
AcDbRegAppTableRecord
  2
ACAD
 70
    0
  0
APPID
  5
63
330
9
100
AcDbSymbolTableRecord
100
AcDbRegAppTableRecord
  2
LibreCad
 70
    0
  0
ENDTAB
  0
TABLE
  2
DIMSTYLE
  5
A
330
0
100
AcDbSymbolTable
 70
    1
100
AcDbDimStyleTable
 71
    1
  0
DIMSTYLE
105
64
330
A
100
AcDbSymbolTableRecord
100
AcDbDimStyleTableRecord
  2
Standard
 70
    0
 40
0.01
 41
0.18
 42
0.0625
 43
0.38
 44
0.18
 45
0
 46
0
 47
0
 48
0
 49
1
140
0.18
141
0.09
142
0
143
25.4
144
1
145
0
146
1
147
0.09
148
0
 71
    0
 72
    0
 73
    1
 74
    1
 75
    0
 76
    0
 77
    0
 78
    0
 79
    0
170
    0
171
    2
172
    0
173
    0
174
    0
175
    0
176
    0
177
    0
178
    0
179
    0
271
    4
272
    4
273
    2
274
    2
275
    0
276
    0
277
    2
278
    0
279
    0
280
    0
281
    0
282
    0
283
    1
284
    0
285
    0
286
    0
288
    0
289
    3
340
61
  0
ENDTAB
  0
TABLE
  2
BLOCK_RECORD
  5
1
330
0
100
AcDbSymbolTable
 70
    2
  0
BLOCK_RECORD
  5
1F
330
1
100
AcDbSymbolTableRecord
100
AcDbBlockTableRecord
  2
*Model_Space
 70
    0
280
    1
281
    0
  0
BLOCK_RECORD
  5
1E
330
1
100
AcDbSymbolTableRecord
100
AcDbBlockTableRecord
  2
*Paper_Space
 70
    0
280
    1
281
    0
  0
ENDTAB
  0
ENDSEC
  0
SECTION
  2
BLOCKS
  0
BLOCK
  5
20
330
1F
100
AcDbEntity
  8
0
100
AcDbBlockBegin
  2
*Model_Space
 70
    0
 10
0
 20
0
 30
0
  3
*Model_Space
  1

  0
ENDBLK
  5
21
330
1F
100
AcDbEntity
  8
0
100
AcDbBlockEnd
  0
BLOCK
  5
1C
330
1B
100
AcDbEntity
  8
0
100
AcDbBlockBegin
  2
*Paper_Space
 70
    0
 10
0
 20
0
 30
0
  3
*Paper_Space
  1

  0
ENDBLK
  5
1D
330
1F
100
AcDbEntity
  8
0
100
AcDbBlockEnd
  0
ENDSEC
  0
SECTION
  2
ENTITIES
  0
LWPOLYLINE
  5
65
100
AcDbEntity
  8
035 Decken
  6
CONTINUOUS
 62
    7
370
    0
100
AcDbPolyline
 90
    4
 70
    1
 43
0
 10
-3.922263893782211
 20
-5.29981754529248
 10
-0.6200000000000132
 20
-5.299999999999999
 10
-0.6200000000000132
 20
-1.909999999999997
 10
-4.037586253645161
 20
-1.909999999999997
  0
LWPOLYLINE
  5
66
100
AcDbEntity
  8
035 Decken
  6
CONTINUOUS
 62
    7
370
    0
100
AcDbPolyline
 90
    4
 70
    1
 43
0
 10
-3.91500000000001
 20
-10.455
 10
-0.6200000000000142
 20
-10.455
 10
-0.6200000000000142
 20
-5.924999999999999
 10
-3.91500000000001
 20
-5.924999999999999
  0
LWPOLYLINE
  5
67
100
AcDbEntity
  8
035 Decken
  6
CONTINUOUS
 62
    7
370
    0
100
AcDbPolyline
 90
    4
 70
    1
 43
0
 10
-8.205000000000009
 20
-10.45499999999999
 10
-4.31500000000001
 20
-10.45499999999999
 10
-4.31500000000001
 20
-5.925
 10
-8.205000000000009
 20
-5.925
  0
LWPOLYLINE
  5
68
100
AcDbEntity
  8
035 Decken
  6
CONTINUOUS
 62
    7
370
    0
100
AcDbPolyline
 90
    6
 70
    1
 43
0
 10
-8.225000000000009
 20
-5.299999999999998
 10
-5.1791630969178
 20
-5.29981754529248
 10
-5.1791630969178
 20
-5.07981754529248
 10
-4.365000000000009
 20
-5.07981754529248
 10
-4.47283791008628
 20
-1.909999999999997
 10
-8.225000000000009
 20
-1.909999999999997
  0
LWPOLYLINE
  5
69
100
AcDbEntity
  8
035 Decken Neu
  6
CONTINUOUS
 62
    1
370
    0
100
AcDbPolyline
 90
    4
 70
    1
 43
0
 10
-3.915000000000011
 20
-10.455
 10
-0.6200000000000145
 20
-10.455
 10
-0.6200000000000145
 20
-5.924999999999999
 10
-3.915000000000011
 20
-5.924999999999999
  0
LWPOLYLINE
  5
6A
100
AcDbEntity
  8
010 Aussenwände
  6
CONTINUOUS
 62
    7
370
   35
100
AcDbPolyline
 90
    2
 70
    0
 43
0
 10
-8.845000000000008
 20
-1.299999999999997
 10
-8.225000000000009
 20
-1.299999999999997
  0
LWPOLYLINE
  5
6B
100
AcDbEntity
  8
010 Aussenwände
  6
CONTINUOUS
 62
    7
370
   35
100
AcDbPolyline
 90
    2
 70
    0
 43
0
 10
-8.845000000000008
 20
-1.299999999999997
 10
-8.845000000000008
 20
-5.299999999999998
  0
LWPOLYLINE
  5
6C
100
AcDbEntity
  8
010 Aussenwände
  6
CONTINUOUS
 62
    7
370
   35
100
AcDbPolyline
 90
    2
 70
    0
 43
0
 10
-8.225000000000009
 20
-5.299999999999998
 10
-8.225000000000009
 20
-1.909999999999997
  0
LWPOLYLINE
  5
6D
100
AcDbEntity
  8
010 Aussenwände
  6
CONTINUOUS
 62
    7
370
   35
100
AcDbPolyline
 90
    2
 70
    0
 43
0
 10
-8.84500000000001
 20
-11.17499999999999
 10
-8.84500000000001
 20
-10.45499999999999
  0
LWPOLYLINE
  5
6E
100
AcDbEntity
  8
010 Aussenwände
  6
CONTINUOUS
 62
    7
370
   35
100
AcDbPolyline
 90
    2
 70
    0
 43
0
 10
-1.42e-14
 20
-11.175
 10
-1.42e-14
 20
-10.455
  0
LINE
  5
6F
100
AcDbEntity
  8
010 Aussenwände
  6
CONTINUOUS
 62
    7
370
   35
100
AcDbLine
 10
-3.745000000000015
 20
-10.45499999999999
 11
-3.745000000000015
 21
-11.17499999999999
  0
LINE
  5
70
100
AcDbEntity
  8
010 Aussenwände
  6
CONTINUOUS
 62
    7
370
   35
100
AcDbLine
 10
-2.880000000000015
 20
-10.45499999999999
 11
-2.880000000000015
 21
-11.17499999999999
  0
LINE
  5
71
100
AcDbEntity
  8
010 Aussenwände
  6
CONTINUOUS
 62
    7
370
   35
100
AcDbLine
 10
-4.405000000000011
 20
-10.45499999999999
 11
-4.405000000000011
 21
-11.17499999999999
  0
LINE
  5
72
100
AcDbEntity
  8
010 Aussenwände
  6
CONTINUOUS
 62
    7
370
   35
100
AcDbLine
 10
-5.270000000000011
 20
-10.45499999999999
 11
-5.270000000000011
 21
-11.17499999999999
  0
LWPOLYLINE
  5
73
100
AcDbEntity
  8
010 Aussenwände
  6
CONTINUOUS
 62
    7
370
   35
100
AcDbPolyline
 90
    2
 70
    0
 43
0
 10
-8.84500000000001
 20
-11.17499999999999
 10
-5.270000061541866
 20
-11.175
  0
LWPOLYLINE
  5
74
100
AcDbEntity
  8
010 Aussenwände
  6
CONTINUOUS
 62
    7
370
   35
100
AcDbPolyline
 90
    2
 70
    0
 43
0
 10
-4.405000004172341
 20
-11.175
 10
-3.745000029727858
 20
-11.175
  0
LWPOLYLINE
  5
75
100
AcDbEntity
  8
010 Aussenwände
  6
CONTINUOUS
 62
    7
370
   35
100
AcDbPolyline
 90
    2
 70
    0
 43
0
 10
-2.879999972358332
 20
-11.175
 10
-1.42e-14
 20
-11.175
  0
LWPOLYLINE
  5
76
100
AcDbEntity
  8
010 Aussenwände
  6
CONTINUOUS
 62
    7
370
   35
100
AcDbPolyline
 90
    2
 70
    0
 43
0
 10
-0.6200000000000134
 20
-10.455
 10
-2.880000033602163
 20
-10.455
  0
LWPOLYLINE
  5
77
100
AcDbEntity
  8
010 Aussenwände
  6
CONTINUOUS
 62
    7
370
   35
100
AcDbPolyline
 90
    2
 70
    0
 43
0
 10
-3.745000039711645
 20
-10.455
 10
-3.915000000000011
 20
-10.455
  0
LWPOLYLINE
  5
78
100
AcDbEntity
  8
010 Aussenwände
  6
CONTINUOUS
 62
    7
370
   35
100
AcDbPolyline
 90
    2
 70
    0
 43
0
 10
-4.315000000000011
 20
-10.455
 10
-4.404999972507342
 20
-10.455
  0
LWPOLYLINE
  5
79
100
AcDbEntity
  8
010 Aussenwände
  6
CONTINUOUS
 62
    7
370
   35
100
AcDbPolyline
 90
    2
 70
    0
 43
0
 10
-5.269999978616823
 20
-10.45499999999999
 10
-8.205000000000009
 20
-10.45499999999999
  0
LINE
  5
7A
100
AcDbEntity
  8
010 Türen
  6
CONTINUOUS
 62
    7
370
    0
100
AcDbLine
 10
-2.880000000000015
 20
-10.455
 11
-3.745000000000015
 21
-10.455
  0
LINE
  5
7B
100
AcDbEntity
  8
010 Türen
  6
CONTINUOUS
 62
    7
370
    0
100
AcDbLine
 10
-2.880000000000015
 20
-11.175
 11
-3.745000000000015
 21
-11.175
  0
LINE
  5
7C
100
AcDbEntity
  8
010 Türen
  6
CONTINUOUS
 62
    7
370
    0
100
AcDbLine
 10
-3.735000000000015
 20
-10.405
 11
-3.735000000000014
 21
-9.559999999999997
  0
LINE
  5
7D
100
AcDbEntity
  8
010 Türen
  6
CONTINUOUS
 62
    7
370
    0
100
AcDbLine
 10
-2.890000000000015
 20
-10.455
 11
-2.890000000000015
 21
-10.405
  0
LINE
  5
7E
100
AcDbEntity
  8
010 Türen
  6
CONTINUOUS
 62
    7
370
    0
100
AcDbLine
 10
-2.890000000000015
 20
-10.405
 11
-2.790000000000015
 21
-10.405
  0
LINE
  5
7F
100
AcDbEntity
  8
010 Türen
  6
CONTINUOUS
 62
    7
370
    0
100
AcDbLine
 10
-2.790000000000015
 20
-10.405
 11
-2.790000000000015
 21
-10.455
  0
LINE
  5
80
100
AcDbEntity
  8
010 Türen
  6
CONTINUOUS
 62
    7
370
    0
100
AcDbLine
 10
-2.790000000000015
 20
-10.455
 11
-2.890000000000015
 21
-10.455
  0
LINE
  5
81
100
AcDbEntity
  8
010 Türen
  6
CONTINUOUS
 62
    7
370
    0
100
AcDbLine
 10
-3.835000000000015
 20
-10.455
 11
-3.835000000000015
 21
-10.405
  0
LINE
  5
82
100
AcDbEntity
  8
010 Türen
  6
CONTINUOUS
 62
    7
370
    0
100
AcDbLine
 10
-3.835000000000015
 20
-10.405
 11
-3.735000000000015
 21
-10.405
  0
LINE
  5
83
100
AcDbEntity
  8
010 Türen
  6
CONTINUOUS
 62
    7
370
    0
100
AcDbLine
 10
-3.735000000000015
 20
-10.405
 11
-3.735000000000015
 21
-10.455
  0
LINE
  5
84
100
AcDbEntity
  8
010 Türen
  6
CONTINUOUS
 62
    7
370
    0
100
AcDbLine
 10
-3.735000000000015
 20
-10.455
 11
-3.835000000000015
 21
-10.455
  0
ARC
  5
85
100
AcDbEntity
  8
010 Türen
  6
CONTINUOUS
 62
    7
370
    0
100
AcDbCircle
 10
-3.735000000000014
 20
-10.405
 40
0.8449999999999993
100
AcDbArc
 50
0
 51
90
  0
LINE
  5
86
100
AcDbEntity
  8
010 Türen
  6
CONTINUOUS
 62
    7
370
   35
100
AcDbLine
 10
-2.880000000000015
 20
-10.455
 11
-2.880000000000015
 21
-11.175
  0
LINE
  5
87
100
AcDbEntity
  8
010 Türen
  6
CONTINUOUS
 62
    7
370
   35
100
AcDbLine
 10
-3.745000000000015
 20
-10.455
 11
-3.745000000000015
 21
-11.175
  0
LINE
  5
88
100
AcDbEntity
  8
010 Türen
  6
CONTINUOUS
 62
    7
370
    0
100
AcDbLine
 10
-5.270000000000011
 20
-10.45499999999999
 11
-4.405000000000011
 21
-10.45499999999999
  0
LINE
  5
89
100
AcDbEntity
  8
010 Türen
  6
CONTINUOUS
 62
    7
370
    0
100
AcDbLine
 10
-5.270000000000011
 20
-11.17499999999999
 11
-4.405000000000012
 21
-11.175
  0
LINE
  5
8A
100
AcDbEntity
  8
010 Türen
  6
CONTINUOUS
 62
    7
370
    0
100
AcDbLine
 10
-4.415000000000011
 20
-10.405
 11
-4.415000000000011
 21
-9.559999999999995
  0
LINE
  5
8B
100
AcDbEntity
  8
010 Türen
  6
CONTINUOUS
 62
    7
370
    0
100
AcDbLine
 10
-5.260000000000011
 20
-10.45499999999999
 11
-5.260000000000011
 21
-10.40499999999999
  0
LINE
  5
8C
100
AcDbEntity
  8
010 Türen
  6
CONTINUOUS
 62
    7
370
    0
100
AcDbLine
 10
-5.260000000000011
 20
-10.40499999999999
 11
-5.360000000000011
 21
-10.40499999999999
  0
LINE
  5
8D
100
AcDbEntity
  8
010 Türen
  6
CONTINUOUS
 62
    7
370
    0
100
AcDbLine
 10
-5.360000000000011
 20
-10.40499999999999
 11
-5.360000000000011
 21
-10.45499999999999
  0
LINE
  5
8E
100
AcDbEntity
  8
010 Türen
  6
CONTINUOUS
 62
    7
370
    0
100
AcDbLine
 10
-5.360000000000011
 20
-10.45499999999999
 11
-5.260000000000011
 21
-10.45499999999999
  0
LINE
  5
8F
100
AcDbEntity
  8
010 Türen
  6
CONTINUOUS
 62
    7
370
    0
100
AcDbLine
 10
-4.315000000000011
 20
-10.45499999999999
 11
-4.315000000000011
 21
-10.405
  0
LINE
  5
90
100
AcDbEntity
  8
010 Türen
  6
CONTINUOUS
 62
    7
370
    0
100
AcDbLine
 10
-4.315000000000011
 20
-10.405
 11
-4.415000000000011
 21
-10.405
  0
LINE
  5
91
100
AcDbEntity
  8
010 Türen
  6
CONTINUOUS
 62
    7
370
    0
100
AcDbLine
 10
-4.415000000000011
 20
-10.405
 11
-4.415000000000011
 21
-10.45499999999999
  0
LINE
  5
92
100
AcDbEntity
  8
010 Türen
  6
CONTINUOUS
 62
    7
370
    0
100
AcDbLine
 10
-4.415000000000011
 20
-10.45499999999999
 11
-4.315000000000011
 21
-10.45499999999999
  0
ARC
  5
93
100
AcDbEntity
  8
010 Türen
  6
CONTINUOUS
 62
    7
370
    0
100
AcDbCircle
 10
-4.415000000000011
 20
-10.405
 40
0.8450000000000006
100
AcDbArc
 50
90
 51
180
  0
LINE
  5
94
100
AcDbEntity
  8
010 Türen
  6
CONTINUOUS
 62
    7
370
   35
100
AcDbLine
 10
-5.270000000000011
 20
-10.45499999999999
 11
-5.270000000000011
 21
-11.17499999999999
  0
LINE
  5
95
100
AcDbEntity
  8
010 Türen
  6
CONTINUOUS
 62
    7
370
   35
100
AcDbLine
 10
-4.405000000000011
 20
-10.45499999999999
 11
-4.405000000000012
 21
-11.175
  0
LWPOLYLINE
  5
96
100
AcDbEntity
  8
010 Aussenwände
  6
CONTINUOUS
 62
    7
370
   35
100
AcDbPolyline
 90
    2
 70
    0
 43
0
 10
-0.3300000000000003
 20
-1.515
 10
-0.6200000000000137
 20
-1.515
  0
LINE
  5
97
100
AcDbEntity
  8
010 Aussenwände
  6
CONTINUOUS
 62
    7
370
   35
100
AcDbLine
 10
-0.3450000000000137
 20
-3.32
 11
-0.6200000000000137
 21
-3.32
  0
LINE
  5
98
100
AcDbEntity
  8
010 Aussenwände
  6
CONTINUOUS
 62
    7
370
   35
100
AcDbLine
 10
-1.37e-14
 20
-3.32
 11
-0.2750000000000137
 21
-3.32
  0
LINE
  5
99
100
AcDbEntity
  8
010 Aussenwände
  6
CONTINUOUS
 62
    7
370
   35
100
AcDbLine
 10
-0.2750000000000137
 20
-3.32
 11
-0.3450000000000137
 21
-3.32
  0
LINE
  5
9A
100
AcDbEntity
  8
010 Aussenwände
  6
CONTINUOUS
 62
    7
370
   35
100
AcDbLine
 10
-0.3450000000000137
 20
-2.715
 11
-0.6200000000000137
 21
-2.715
  0
LINE
  5
9B
100
AcDbEntity
  8
010 Aussenwände
  6
CONTINUOUS
 62
    7
370
   35
100
AcDbLine
 10
-1.37e-14
 20
-2.715
 11
-0.2750000000000137
 21
-2.715
  0
LINE
  5
9C
100
AcDbEntity
  8
010 Aussenwände
  6
CONTINUOUS
 62
    7
370
   35
100
AcDbLine
 10
-0.2750000000000137
 20
-2.715
 11
-0.3450000000000137
 21
-2.715
  0
LINE
  5
9D
100
AcDbEntity
  8
010 Aussenwände
  6
CONTINUOUS
 62
    7
370
   35
100
AcDbLine
 10
-0.6200000000000138
 20
-5.144999999999999
 11
-1.38e-14
 21
-5.144999999999999
  0
LINE
  5
9E
100
AcDbEntity
  8
010 Aussenwände
  6
CONTINUOUS
 62
    7
370
   35
100
AcDbLine
 10
-0.6200000000000138
 20
-4.284999999999999
 11
-1.38e-14
 21
-4.284999999999999
  0
LWPOLYLINE
  5
9F
100
AcDbEntity
  8
010 Aussenwände
  6
CONTINUOUS
 62
    7
370
   35
100
AcDbPolyline
 90
    2
 70
    0
 43
0
 10
-1.42e-14
 20
-10.455
 10
-1.38e-14
 20
-5.1449999848008
  0
LWPOLYLINE
  5
A0
100
AcDbEntity
  8
010 Aussenwände
  6
CONTINUOUS
 62
    7
370
   35
100
AcDbPolyline
 90
    2
 70
    0
 43
0
 10
-1.38e-14
 20
-4.285000048279809
 10
-1.37e-14
 20
-3.320000036656892
  0
LWPOLYLINE
  5
A1
100
AcDbEntity
  8
010 Aussenwände
  6
CONTINUOUS
 62
    7
370
   35
100
AcDbPolyline
 90
    2
 70
    0
 43
0
 10
-1.37e-14
 20
-2.7150000151992
 10
-1.36e-14
 20
-1.515000000000001
  0
LWPOLYLINE
  5
A2
100
AcDbEntity
  8
010 Aussenwände
  6
CONTINUOUS
 62
    7
370
   35
100
AcDbPolyline
 90
    2
 70
    0
 43
0
 10
-0.6200000000000137
 20
-1.91
 10
-0.6200000000000137
 20
-2.714999996423718
  0
LWPOLYLINE
  5
A3
100
AcDbEntity
  8
010 Aussenwände
  6
CONTINUOUS
 62
    7
370
   35
100
AcDbPolyline
 90
    2
 70
    0
 43
0
 10
-0.6200000000000138
 20
-3.319999997690318
 10
-0.6200000000000138
 20
-4.284999990239729
  0
LWPOLYLINE
  5
A4
100
AcDbEntity
  8
010 Aussenwände
  6
CONTINUOUS
 62
    7
370
   35
100
AcDbPolyline
 90
    2
 70
    0
 43
0
 10
-0.6200000000000139
 20
-5.145000033080608
 10
-0.6200000000000139
 20
-5.299999999999999
  0
LWPOLYLINE
  5
A5
100
AcDbEntity
  8
010 Aussenwände
  6
CONTINUOUS
 62
    7
370
   35
100
AcDbPolyline
 90
    2
 70
    0
 43
0
 10
-0.6200000000000139
 20
-5.924999999999999
 10
-0.6200000000000142
 20
-10.455
  0
LINE
  5
A6
100
AcDbEntity
  8
010 Fenster
  6
CONTINUOUS
 62
    7
370
    0
100
AcDbLine
 10
-1.37e-14
 20
-2.715
 11
-1.37e-14
 21
-3.32
  0
LINE
  5
A7
100
AcDbEntity
  8
010 Fenster
  6
CONTINUOUS
 62
    7
370
    0
100
AcDbLine
 10
-0.6200000000000137
 20
-2.715
 11
-0.6200000000000137
 21
-3.32
  0
LINE
  5
A8
100
AcDbEntity
  8
010 Fenster
  6
CONTINUOUS
 62
    7
370
    0
100
AcDbLine
 10
-0.2750000000000137
 20
-3.22
 11
-0.2750000000000137
 21
-2.815
  0
LINE
  5
A9
100
AcDbEntity
  8
010 Fenster
  6
CONTINUOUS
 62
    7
370
    0
100
AcDbLine
 10
-0.3450000000000137
 20
-2.715
 11
-0.3450000000000137
 21
-2.795
  0
LINE
  5
AA
100
AcDbEntity
  8
010 Fenster
  6
CONTINUOUS
 62
    7
370
    0
100
AcDbLine
 10
-0.3450000000000137
 20
-2.795
 11
-0.3150000000000137
 21
-2.795
  0
LINE
  5
AB
100
AcDbEntity
  8
010 Fenster
  6
CONTINUOUS
 62
    7
370
    0
100
AcDbLine
 10
-0.3150000000000137
 20
-2.795
 11
-0.3150000000000137
 21
-2.815
  0
LINE
  5
AC
100
AcDbEntity
  8
010 Fenster
  6
CONTINUOUS
 62
    7
370
    0
100
AcDbLine
 10
-0.3150000000000137
 20
-2.815
 11
-0.2750000000000137
 21
-2.815
  0
LINE
  5
AD
100
AcDbEntity
  8
010 Fenster
  6
CONTINUOUS
 62
    7
370
    0
100
AcDbLine
 10
-0.2750000000000137
 20
-2.815
 11
-0.2750000000000137
 21
-2.715
  0
LINE
  5
AE
100
AcDbEntity
  8
010 Fenster
  6
CONTINUOUS
 62
    7
370
    0
100
AcDbLine
 10
-0.2750000000000137
 20
-3.32
 11
-0.2750000000000137
 21
-3.22
  0
LINE
  5
AF
100
AcDbEntity
  8
010 Fenster
  6
CONTINUOUS
 62
    7
370
    0
100
AcDbLine
 10
-0.2750000000000137
 20
-3.22
 11
-0.3150000000000138
 21
-3.22
  0
LINE
  5
B0
100
AcDbEntity
  8
010 Fenster
  6
CONTINUOUS
 62
    7
370
    0
100
AcDbLine
 10
-0.3150000000000138
 20
-3.22
 11
-0.3150000000000138
 21
-3.24
  0
LINE
  5
B1
100
AcDbEntity
  8
010 Fenster
  6
CONTINUOUS
 62
    7
370
    0
100
AcDbLine
 10
-0.3150000000000138
 20
-3.24
 11
-0.3450000000000137
 21
-3.24
  0
LINE
  5
B2
100
AcDbEntity
  8
010 Fenster
  6
CONTINUOUS
 62
    7
370
    0
100
AcDbLine
 10
-0.3450000000000137
 20
-3.24
 11
-0.3450000000000137
 21
-3.32
  0
LINE
  5
B3
100
AcDbEntity
  8
010 Fenster
  6
CONTINUOUS
 62
    7
370
    0
100
AcDbLine
 10
-0.3150000000000138
 20
-3.17
 11
-0.3150000000000137
 21
-2.865
  0
LINE
  5
B4
100
AcDbEntity
  8
010 Fenster
  6
CONTINUOUS
 62
    7
370
    0
100
AcDbLine
 10
-0.3750000000000137
 20
-2.865
 11
-0.3750000000000138
 21
-3.17
  0
LINE
  5
B5
100
AcDbEntity
  8
010 Fenster
  6
CONTINUOUS
 62
    7
370
    0
100
AcDbLine
 10
-0.3150000000000137
 20
-2.795
 11
-0.3750000000000137
 21
-2.795
  0
LINE
  5
B6
100
AcDbEntity
  8
010 Fenster
  6
CONTINUOUS
 62
    7
370
    0
100
AcDbLine
 10
-0.3750000000000137
 20
-2.795
 11
-0.3750000000000137
 21
-2.865
  0
LINE
  5
B7
100
AcDbEntity
  8
010 Fenster
  6
CONTINUOUS
 62
    7
370
    0
100
AcDbLine
 10
-0.3750000000000137
 20
-2.865
 11
-0.3150000000000137
 21
-2.865
  0
LINE
  5
B8
100
AcDbEntity
  8
010 Fenster
  6
CONTINUOUS
 62
    7
370
    0
100
AcDbLine
 10
-0.3150000000000137
 20
-2.865
 11
-0.3150000000000137
 21
-2.795
  0
LINE
  5
B9
100
AcDbEntity
  8
010 Fenster
  6
CONTINUOUS
 62
    7
370
    0
100
AcDbLine
 10
-0.3150000000000138
 20
-3.17
 11
-0.3750000000000138
 21
-3.17
  0
LINE
  5
BA
100
AcDbEntity
  8
010 Fenster
  6
CONTINUOUS
 62
    7
370
    0
100
AcDbLine
 10
-0.3750000000000138
 20
-3.17
 11
-0.3750000000000138
 21
-3.24
  0
LINE
  5
BB
100
AcDbEntity
  8
010 Fenster
  6
CONTINUOUS
 62
    7
370
    0
100
AcDbLine
 10
-0.3750000000000138
 20
-3.24
 11
-0.3150000000000138
 21
-3.24
  0
LINE
  5
BC
100
AcDbEntity
  8
010 Fenster
  6
CONTINUOUS
 62
    7
370
    0
100
AcDbLine
 10
-0.3150000000000138
 20
-3.24
 11
-0.3150000000000138
 21
-3.17
  0
LINE
  5
BD
100
AcDbEntity
  8
010 Fenster
  6
CONTINUOUS
 62
    7
370
    0
100
AcDbLine
 10
-0.3550000000000137
 20
-2.865
 11
-0.3550000000000137
 21
-3.17
  0
LINE
  5
BE
100
AcDbEntity
  8
010 Fenster
  6
CONTINUOUS
 62
    7
370
    0
100
AcDbLine
 10
-0.3350000000000137
 20
-3.17
 11
-0.3350000000000137
 21
-2.865
  0
LINE
  5
BF
100
AcDbEntity
  8
010 Fenster
  6
CONTINUOUS
 62
    7
370
   35
100
AcDbLine
 10
-0.2750000000000137
 20
-2.715
 11
-0.3450000000000137
 21
-2.715
  0
LINE
  5
C0
100
AcDbEntity
  8
010 Fenster
  6
CONTINUOUS
 62
    7
370
   35
100
AcDbLine
 10
-0.2750000000000137
 20
-2.715
 11
-0.3450000000000137
 21
-2.715
  0
LINE
  5
C1
100
AcDbEntity
  8
010 Fenster
  6
CONTINUOUS
 62
    7
370
   35
100
AcDbLine
 10
-1.37e-14
 20
-2.715
 11
-0.2750000000000137
 21
-2.715
  0
LINE
  5
C2
100
AcDbEntity
  8
010 Fenster
  6
CONTINUOUS
 62
    7
370
   35
100
AcDbLine
 10
-0.3450000000000137
 20
-2.715
 11
-0.6200000000000137
 21
-2.715
  0
LINE
  5
C3
100
AcDbEntity
  8
010 Fenster
  6
CONTINUOUS
 62
    7
370
   35
100
AcDbLine
 10
-0.2750000000000137
 20
-3.32
 11
-0.3450000000000137
 21
-3.32
  0
LINE
  5
C4
100
AcDbEntity
  8
010 Fenster
  6
CONTINUOUS
 62
    7
370
   35
100
AcDbLine
 10
-0.2750000000000137
 20
-3.32
 11
-0.3450000000000137
 21
-3.32
  0
LINE
  5
C5
100
AcDbEntity
  8
010 Fenster
  6
CONTINUOUS
 62
    7
370
   35
100
AcDbLine
 10
-1.37e-14
 20
-3.32
 11
-0.2750000000000137
 21
-3.32
  0
LINE
  5
C6
100
AcDbEntity
  8
010 Fenster
  6
CONTINUOUS
 62
    7
370
   35
100
AcDbLine
 10
-0.3450000000000137
 20
-3.32
 11
-0.6200000000000137
 21
-3.32
  0
LINE
  5
C7
100
AcDbEntity
  8
010 Türen
  6
CONTINUOUS
 62
    7
370
    0
100
AcDbLine
 10
-0.6200000000000138
 20
-4.284999999999999
 11
-0.6200000000000138
 21
-5.144999999999999
  0
LINE
  5
C8
100
AcDbEntity
  8
010 Türen
  6
CONTINUOUS
 62
    7
370
    0
100
AcDbLine
 10
-1.38e-14
 20
-4.284999999999999
 11
-1.38e-14
 21
-5.144999999999999
  0
LINE
  5
C9
100
AcDbEntity
  8
010 Türen
  6
CONTINUOUS
 62
    7
370
    0
100
AcDbLine
 10
-0.6700000000000138
 20
-5.134999999999999
 11
-1.510000000000014
 21
-5.134999999999999
  0
LINE
  5
CA
100
AcDbEntity
  8
010 Türen
  6
CONTINUOUS
 62
    7
370
    0
100
AcDbLine
 10
-0.6200000000000138
 20
-4.294999999999999
 11
-0.6700000000000137
 21
-4.294999999999999
  0
LINE
  5
CB
100
AcDbEntity
  8
010 Türen
  6
CONTINUOUS
 62
    7
370
    0
100
AcDbLine
 10
-0.6700000000000137
 20
-4.294999999999999
 11
-0.6700000000000137
 21
-4.194999999999999
  0
LINE
  5
CC
100
AcDbEntity
  8
010 Türen
  6
CONTINUOUS
 62
    7
370
    0
100
AcDbLine
 10
-0.6700000000000137
 20
-4.194999999999999
 11
-0.6200000000000138
 21
-4.194999999999999
  0
LINE
  5
CD
100
AcDbEntity
  8
010 Türen
  6
CONTINUOUS
 62
    7
370
    0
100
AcDbLine
 10
-0.6200000000000138
 20
-4.194999999999999
 11
-0.6200000000000138
 21
-4.294999999999999
  0
LINE
  5
CE
100
AcDbEntity
  8
010 Türen
  6
CONTINUOUS
 62
    7
370
    0
100
AcDbLine
 10
-0.6200000000000138
 20
-5.234999999999999
 11
-0.6700000000000138
 21
-5.234999999999999
  0
LINE
  5
CF
100
AcDbEntity
  8
010 Türen
  6
CONTINUOUS
 62
    7
370
    0
100
AcDbLine
 10
-0.6700000000000138
 20
-5.234999999999999
 11
-0.6700000000000138
 21
-5.134999999999999
  0
LINE
  5
D0
100
AcDbEntity
  8
010 Türen
  6
CONTINUOUS
 62
    7
370
    0
100
AcDbLine
 10
-0.6700000000000138
 20
-5.134999999999999
 11
-0.6200000000000138
 21
-5.134999999999999
  0
LINE
  5
D1
100
AcDbEntity
  8
010 Türen
  6
CONTINUOUS
 62
    7
370
    0
100
AcDbLine
 10
-0.6200000000000138
 20
-5.134999999999999
 11
-0.6200000000000138
 21
-5.234999999999999
  0
ARC
  5
D2
100
AcDbEntity
  8
010 Türen
  6
CONTINUOUS
 62
    7
370
    0
100
AcDbCircle
 10
-0.6700000000000139
 20
-5.134999999999999
 40
0.8400000000000001
100
AcDbArc
 50
90
 51
180
  0
LINE
  5
D3
100
AcDbEntity
  8
010 Türen
  6
CONTINUOUS
 62
    7
370
   35
100
AcDbLine
 10
-0.6200000000000138
 20
-4.284999999999999
 11
-1.38e-14
 21
-4.284999999999999
  0
LINE
  5
D4
100
AcDbEntity
  8
010 Türen
  6
CONTINUOUS
 62
    7
370
   35
100
AcDbLine
 10
-0.6200000000000138
 20
-5.144999999999999
 11
-1.38e-14
 21
-5.144999999999999
  0
LWPOLYLINE
  5
D5
100
AcDbEntity
  8
010 Aussenwände
  6
CONTINUOUS
 62
    7
370
   35
100
AcDbPolyline
 90
    2
 70
    0
 43
0
 10
-8.225000000000009
 20
-1.909999999999997
 10
-4.47283791008628
 20
-1.909999999999997
  0
LWPOLYLINE
  5
D6
100
AcDbEntity
  8
010 Aussenwände
  6
CONTINUOUS
 62
    7
370
   35
100
AcDbPolyline
 90
    2
 70
    0
 43
0
 10
-4.037586253645161
 20
-1.909999999999997
 10
-2.92
 20
-1.909999999999997
  0
LWPOLYLINE
  5
D7
100
AcDbEntity
  8
010 Aussenwände
  6
CONTINUOUS
 62
    7
370
   35
100
AcDbPolyline
 90
    2
 70
    0
 43
0
 10
-2.92
 20
-1.299999999999997
 10
-8.225000000000009
 20
-1.299999999999997
  0
LWPOLYLINE
  5
D8
100
AcDbEntity
  8
015 Innenwände
  6
CONTINUOUS
 62
    7
370
   35
100
AcDbPolyline
 90
    2
 70
    0
 43
0
 10
-3.915000000000011
 20
-10.455
 10
-3.91500000000001
 20
-5.925
  0
LWPOLYLINE
  5
D9
100
AcDbEntity
  8
015 Innenwände
  6
CONTINUOUS
 62
    7
370
   35
100
AcDbPolyline
 90
    2
 70
    0
 43
0
 10
-4.31500000000001
 20
-5.925
 10
-4.315000000000011
 20
-10.455
  0
LWPOLYLINE
  5
DA
100
AcDbEntity
  8
015 Innenwände
  6
CONTINUOUS
 62
    7
370
   35
100
AcDbPolyline
 90
    2
 70
    0
 43
0
 10
-3.922263893782211
 20
-5.29981754529248
 10
-4.357515550223328
 20
-5.29981754529248
  0
LWPOLYLINE
  5
DB
100
AcDbEntity
  8
015 Innenwände
  6
CONTINUOUS
 62
    7
370
   35
100
AcDbPolyline
 90
    2
 70
    0
 43
0
 10
-3.922263893782211
 20
-5.29981754529248
 10
-4.037586253645161
 20
-1.909999999999997
  0
LWPOLYLINE
  5
DC
100
AcDbEntity
  8
015 Innenwände
  6
CONTINUOUS
 62
    7
370
   35
100
AcDbPolyline
 90
    2
 70
    0
 43
0
 10
-4.472837910086279
 20
-1.909999999999997
 10
-4.365000000000009
 20
-5.07981754529248
  0
LINE
  5
DD
100
AcDbEntity
  8
015 Innenwände
  6
CONTINUOUS
 62
    7
370
   35
100
AcDbLine
 10
-6.765873732494541
 20
-5.784999999999998
 11
-6.976757734350593
 21
-5.299999999999998
  0
LINE
  5
DE
100
AcDbEntity
  8
015 Innenwände
  6
CONTINUOUS
 62
    7
370
   35
100
AcDbLine
 10
-6.705000000000009
 20
-5.924999999999998
 11
-6.765873732494541
 21
-5.784999999999998
  0
LINE
  5
DF
100
AcDbEntity
  8
015 Innenwände
  6
CONTINUOUS
 62
    7
370
   35
100
AcDbLine
 10
-5.719052533709594
 20
-5.784999999999998
 11
-5.6291630969178
 21
-5.299999999999998
  0
LINE
  5
E0
100
AcDbEntity
  8
015 Innenwände
  6
CONTINUOUS
 62
    7
370
   35
100
AcDbLine
 10
-5.74500000000001
 20
-5.924999999999998
 11
-5.719052533709594
 21
-5.784999999999998
  0
LWPOLYLINE
  5
E1
100
AcDbEntity
  8
015 Innenwände
  6
CONTINUOUS
 62
    7
370
   35
100
AcDbPolyline
 90
    2
 70
    0
 43
0
 10
-8.205000000000009
 20
-5.924999999999998
 10
-6.705000039711642
 20
-5.924999999999998
  0
LWPOLYLINE
  5
E2
100
AcDbEntity
  8
015 Innenwände
  6
CONTINUOUS
 62
    7
370
   35
100
AcDbPolyline
 90
    2
 70
    0
 43
0
 10
-5.745000024437939
 20
-5.924999999999998
 10
-4.315000000000011
 20
-5.924999999999999
  0
LWPOLYLINE
  5
E3
100
AcDbEntity
  8
015 Innenwände
  6
CONTINUOUS
 62
    7
370
   35
100
AcDbPolyline
 90
    2
 70
    0
 43
0
 10
-3.91500000000001
 20
-5.924999999999999
 10
-0.6200000000000134
 20
-5.924999999999999
  0
LWPOLYLINE
  5
E4
100
AcDbEntity
  8
015 Innenwände
  6
CONTINUOUS
 62
    7
370
   35
100
AcDbPolyline
 90
    2
 70
    0
 43
0
 10
-0.6200000000000134
 20
-5.299999999999999
 10
-5.62916310305058
 20
-5.299999999999998
  0
LWPOLYLINE
  5
E5
100
AcDbEntity
  8
015 Innenwände
  6
CONTINUOUS
 62
    7
370
   35
100
AcDbPolyline
 90
    2
 70
    0
 43
0
 10
-6.9767577914521
 20
-5.299999999999998
 10
-8.205000000000009
 20
-5.299999999999998
  0
LINE
  5
E6
100
AcDbEntity
  8
010 Fenster
  6
CONTINUOUS
 62
    7
370
    0
100
AcDbLine
 10
-5.74500000000001
 20
-5.924999999999998
 11
-6.705000000000009
 21
-5.924999999999998
  0
LINE
  5
E7
100
AcDbEntity
  8
010 Fenster
  6
CONTINUOUS
 62
    7
370
    0
100
AcDbLine
 10
-5.74500000000001
 20
-5.924999999999998
 11
-5.79500000000001
 21
-5.924999999999998
  0
LINE
  5
E8
100
AcDbEntity
  8
010 Fenster
  6
CONTINUOUS
 62
    7
370
    0
100
AcDbLine
 10
-5.79500000000001
 20
-5.924999999999998
 11
-5.79500000000001
 21
-5.784999999999998
  0
LINE
  5
E9
100
AcDbEntity
  8
010 Fenster
  6
CONTINUOUS
 62
    7
370
    0
100
AcDbLine
 10
-5.79500000000001
 20
-5.784999999999998
 11
-5.719052533709594
 21
-5.784999999999998
  0
LINE
  5
EA
100
AcDbEntity
  8
010 Fenster
  6
CONTINUOUS
 62
    7
370
    0
100
AcDbLine
 10
-6.765873732494541
 20
-5.784999999999998
 11
-6.655000000000009
 21
-5.784999999999998
  0
LINE
  5
EB
100
AcDbEntity
  8
010 Fenster
  6
CONTINUOUS
 62
    7
370
    0
100
AcDbLine
 10
-6.655000000000009
 20
-5.784999999999998
 11
-6.655000000000009
 21
-5.924999999999998
  0
LINE
  5
EC
100
AcDbEntity
  8
010 Fenster
  6
CONTINUOUS
 62
    7
370
    0
100
AcDbLine
 10
-6.655000000000009
 20
-5.924999999999998
 11
-6.705000000000009
 21
-5.924999999999998
  0
LINE
  5
ED
100
AcDbEntity
  8
010 Fenster
  6
CONTINUOUS
 62
    7
370
    0
100
AcDbLine
 10
-5.79500000000001
 20
-5.924999999999998
 11
-6.655000000000009
 21
-5.924999999999998
  0
LINE
  5
EE
100
AcDbEntity
  8
010 Fenster
  6
CONTINUOUS
 62
    7
370
    0
100
AcDbLine
 10
-6.655000000000009
 20
-5.784999999999998
 11
-5.79500000000001
 21
-5.784999999999998
  0
LINE
  5
EF
100
AcDbEntity
  8
010 Fenster
  6
CONTINUOUS
 62
    7
370
   35
100
AcDbLine
 10
-5.74500000000001
 20
-5.924999999999998
 11
-5.719052533709594
 21
-5.784999999999998
  0
LINE
  5
F0
100
AcDbEntity
  8
010 Fenster
  6
CONTINUOUS
 62
    7
370
   35
100
AcDbLine
 10
-5.74500000000001
 20
-5.924999999999998
 11
-5.719052533709594
 21
-5.784999999999998
  0
LINE
  5
F1
100
AcDbEntity
  8
010 Fenster
  6
CONTINUOUS
 62
    7
370
   35
100
AcDbLine
 10
-5.719052533709594
 20
-5.784999999999998
 11
-5.6291630969178
 21
-5.299999999999998
  0
LINE
  5
F2
100
AcDbEntity
  8
010 Fenster
  6
CONTINUOUS
 62
    7
370
   35
100
AcDbLine
 10
-6.705000000000009
 20
-5.924999999999998
 11
-6.765873732494541
 21
-5.784999999999998
  0
LINE
  5
F3
100
AcDbEntity
  8
010 Fenster
  6
CONTINUOUS
 62
    7
370
   35
100
AcDbLine
 10
-6.705000000000009
 20
-5.924999999999998
 11
-6.765873732494541
 21
-5.784999999999998
  0
LINE
  5
F4
100
AcDbEntity
  8
010 Fenster
  6
CONTINUOUS
 62
    7
370
   35
100
AcDbLine
 10
-6.765873732494541
 20
-5.784999999999998
 11
-6.976757734350593
 21
-5.299999999999998
  0
LWPOLYLINE
  5
F5
100
AcDbEntity
  8
015 Innenwände
  6
CONTINUOUS
 62
    7
370
   35
100
AcDbPolyline
 90
    2
 70
    0
 43
0
 10
-8.225000000000009
 20
-5.299999999999998
 10
-8.205000000000009
 20
-5.299999999999998
  0
LWPOLYLINE
  5
F6
100
AcDbEntity
  8
010 Aussenwände
  6
CONTINUOUS
 62
    7
370
   35
100
AcDbPolyline
 90
    2
 70
    0
 43
0
 10
-8.84500000000001
 20
-5.299999999999997
 10
-8.84500000000001
 20
-10.45499999999999
  0
LWPOLYLINE
  5
F7
100
AcDbEntity
  8
010 Aussenwände
  6
CONTINUOUS
 62
    7
370
   35
100
AcDbPolyline
 90
    2
 70
    0
 43
0
 10
-8.205000000000009
 20
-10.45499999999999
 10
-8.205000000000009
 20
-5.924999999999998
  0
LWPOLYLINE
  5
F8
100
AcDbEntity
  8
015 Innenwände
  6
CONTINUOUS
 62
    7
370
   35
100
AcDbPolyline
 90
    2
 70
    0
 43
0
 10
-5.1791630969178
 20
-5.29981754529248
 10
-4.357515550223328
 20
-5.29981754529248
  0
LWPOLYLINE
  5
F9
100
AcDbEntity
  8
015 Innenwände
  6
CONTINUOUS
 62
    7
370
   35
100
AcDbPolyline
 90
    2
 70
    0
 43
0
 10
-4.365000000000008
 20
-5.07981754529248
 10
-5.1791630969178
 20
-5.07981754529248
  0
LWPOLYLINE
  5
FA
100
AcDbEntity
  8
015 Innenwände
  6
CONTINUOUS
 62
    7
370
   35
100
AcDbPolyline
 90
    2
 70
    0
 43
0
 10
-5.1791630969178
 20
-5.07981754529248
 10
-5.1791630969178
 20
-5.29981754529248
  0
LWPOLYLINE
  5
FB
100
AcDbEntity
  8
010 Aussenwände
  6
CONTINUOUS
 62
    7
370
   35
100
AcDbPolyline
 90
    2
 70
    0
 43
0
 10
0
 20
0
 10
-1e-16
 20
-0.4
  0
LWPOLYLINE
  5
FC
100
AcDbEntity
  8
010 Aussenwände
  6
CONTINUOUS
 62
    7
370
   35
100
AcDbPolyline
 90
    2
 70
    0
 43
0
 10
-2.92
 20
4e-16
 10
-2.92
 20
-0.3999999999999996
  0
LWPOLYLINE
  5
FD
100
AcDbEntity
  8
010 Aussenwände
  6
CONTINUOUS
 62
    7
370
   35
100
AcDbPolyline
 90
    2
 70
    0
 43
0
 10
0
 20
0
 10
-2.92
 20
4e-16
  0
LWPOLYLINE
  5
FE
100
AcDbEntity
  8
010 Aussenwände
  6
CONTINUOUS
 62
    7
370
   35
100
AcDbPolyline
 90
    2
 70
    0
 43
0
 10
-2.52
 20
-0.3999999999999997
 10
-0.3300000000000001
 20
-0.3999999999999999
  0
LINE
  5
FF
100
AcDbEntity
  8
010 Aussenwände
  6
CONTINUOUS
 62
    7
370
   35
100
AcDbLine
 10
-0.3300000000000002
 20
-1.35
 11
-2e-16
 21
-1.35
  0
LINE
  5
100
100
AcDbEntity
  8
010 Aussenwände
  6
CONTINUOUS
 62
    7
370
   35
100
AcDbLine
 10
-0.3300000000000001
 20
-0.6499999999999999
 11
-1e-16
 21
-0.6499999999999999
  0
LWPOLYLINE
  5
101
100
AcDbEntity
  8
010 Aussenwände
  6
CONTINUOUS
 62
    7
370
   35
100
AcDbPolyline
 90
    2
 70
    0
 43
0
 10
-0.3300000000000001
 20
-0.3999999999999999
 10
-0.3300000000000001
 20
-0.649999997615812
  0
LWPOLYLINE
  5
102
100
AcDbEntity
  8
010 Aussenwände
  6
CONTINUOUS
 62
    7
370
   35
100
AcDbPolyline
 90
    2
 70
    0
 43
0
 10
-0.3300000000000002
 20
-1.349999994263047
 10
-0.3300000000000003
 20
-1.515
  0
LWPOLYLINE
  5
103
100
AcDbEntity
  8
010 Aussenwände
  6
CONTINUOUS
 62
    7
370
   35
100
AcDbPolyline
 90
    2
 70
    0
 43
0
 10
-3e-16
 20
-1.515
 10
-2e-16
 20
-1.35000000469387
  0
LWPOLYLINE
  5
104
100
AcDbEntity
  8
010 Aussenwände
  6
CONTINUOUS
 62
    7
370
   35
100
AcDbPolyline
 90
    2
 70
    0
 43
0
 10
-1e-16
 20
-0.649999989718189
 10
-1e-16
 20
-0.4
  0
LINE
  5
105
100
AcDbEntity
  8
010 Türen
  6
CONTINUOUS
 62
    7
370
    0
100
AcDbLine
 10
-0.3300000000000001
 20
-0.6499999999999999
 11
-0.3300000000000003
 21
-1.35
  0
LINE
  5
106
100
AcDbEntity
  8
010 Türen
  6
CONTINUOUS
 62
    7
370
    0
100
AcDbLine
 10
-1e-16
 20
-0.65
 11
-3e-16
 21
-1.35
  0
LINE
  5
107
100
AcDbEntity
  8
010 Türen
  6
CONTINUOUS
 62
    7
370
    0
100
AcDbLine
 10
-0.3800000000000003
 20
-1.34
 11
-1.06
 21
-1.34
  0
LINE
  5
108
100
AcDbEntity
  8
010 Türen
  6
CONTINUOUS
 62
    7
370
    0
100
AcDbLine
 10
-0.3300000000000001
 20
-0.6599999999999999
 11
-0.3800000000000001
 21
-0.6599999999999999
  0
LINE
  5
109
100
AcDbEntity
  8
010 Türen
  6
CONTINUOUS
 62
    7
370
    0
100
AcDbLine
 10
-0.3800000000000001
 20
-0.6599999999999999
 11
-0.3800000000000001
 21
-0.5599999999999999
  0
LINE
  5
10A
100
AcDbEntity
  8
010 Türen
  6
CONTINUOUS
 62
    7
370
    0
100
AcDbLine
 10
-0.3800000000000001
 20
-0.5599999999999999
 11
-0.3300000000000001
 21
-0.5599999999999999
  0
LINE
  5
10B
100
AcDbEntity
  8
010 Türen
  6
CONTINUOUS
 62
    7
370
    0
100
AcDbLine
 10
-0.3300000000000001
 20
-0.5599999999999999
 11
-0.3300000000000001
 21
-0.6599999999999999
  0
LINE
  5
10C
100
AcDbEntity
  8
010 Türen
  6
CONTINUOUS
 62
    7
370
    0
100
AcDbLine
 10
-0.3300000000000003
 20
-1.44
 11
-0.3800000000000003
 21
-1.44
  0
LINE
  5
10D
100
AcDbEntity
  8
010 Türen
  6
CONTINUOUS
 62
    7
370
    0
100
AcDbLine
 10
-0.3800000000000003
 20
-1.44
 11
-0.3800000000000003
 21
-1.34
  0
LINE
  5
10E
100
AcDbEntity
  8
010 Türen
  6
CONTINUOUS
 62
    7
370
    0
100
AcDbLine
 10
-0.3800000000000003
 20
-1.34
 11
-0.3300000000000003
 21
-1.34
  0
LINE
  5
10F
100
AcDbEntity
  8
010 Türen
  6
CONTINUOUS
 62
    7
370
    0
100
AcDbLine
 10
-0.3300000000000003
 20
-1.34
 11
-0.3300000000000003
 21
-1.44
  0
ARC
  5
110
100
AcDbEntity
  8
010 Türen
  6
CONTINUOUS
 62
    7
370
    0
100
AcDbCircle
 10
-0.3800000000000003
 20
-1.34
 40
0.6799999999999999
100
AcDbArc
 50
90
 51
180
  0
LINE
  5
111
100
AcDbEntity
  8
010 Türen
  6
CONTINUOUS
 62
    7
370
   35
100
AcDbLine
 10
-0.3300000000000001
 20
-0.6499999999999999
 11
-1e-16
 21
-0.65
  0
LINE
  5
112
100
AcDbEntity
  8
010 Türen
  6
CONTINUOUS
 62
    7
370
   35
100
AcDbLine
 10
-0.3300000000000003
 20
-1.35
 11
-3e-16
 21
-1.35
  0
LWPOLYLINE
  5
113
100
AcDbEntity
  8
010 Aussenwände
  6
CONTINUOUS
 62
    7
370
   35
100
AcDbPolyline
 90
    2
 70
    0
 43
0
 10
-2.92
 20
-1.91
 10
-2.52
 20
-1.91
  0
LWPOLYLINE
  5
114
100
AcDbEntity
  8
010 Aussenwände
  6
CONTINUOUS
 62
    7
370
   35
100
AcDbPolyline
 90
    2
 70
    0
 43
0
 10
-2.92
 20
-0.3999999999999996
 10
-2.92
 20
-1.299999999999997
  0
LWPOLYLINE
  5
115
100
AcDbEntity
  8
010 Aussenwände
  6
CONTINUOUS
 62
    7
370
   35
100
AcDbPolyline
 90
    2
 70
    0
 43
0
 10
-2.52
 20
-1.515
 10
-2.52
 20
-0.3999999999999997
  0
LWPOLYLINE
  5
116
100
AcDbEntity
  8
010 Aussenwände
  6
CONTINUOUS
 62
    7
370
   35
100
AcDbPolyline
 90
    2
 70
    0
 43
0
 10
-2.52
 20
-1.91
 10
-0.6200000000000134
 20
-1.91
  0
LWPOLYLINE
  5
117
100
AcDbEntity
  8
010 Aussenwände
  6
CONTINUOUS
 62
    7
370
   35
100
AcDbPolyline
 90
    2
 70
    0
 43
0
 10
-0.6200000000000137
 20
-1.515
 10
-2.52
 20
-1.515
  0
LWPOLYLINE
  5
118
100
AcDbEntity
  8
020 Stützen
  6
CONTINUOUS
 62
    7
370
   18
100
AcDbPolyline
 90
    4
 70
    1
 43
0
 10
-6.585000000000009
 20
-8.134999999999998
 10
-6.38500000000001
 20
-8.134999999999998
 10
-6.38500000000001
 20
-7.934999999999999
 10
-6.585000000000009
 20
-7.934999999999999
  0
LINE
  5
119
100
AcDbEntity
  8
036 Deckenbalken Neu
  6
CONTINUOUS
 62
    1
370
    0
100
AcDbLine
 10
-5.362500000000008
 20
-10.455
 11
-5.522500000000008
 21
-10.455
  0
LINE
  5
11A
100
AcDbEntity
  8
036 Deckenbalken Neu
  6
CONTINUOUS
 62
    1
370
    0
100
AcDbLine
 10
-5.362500000000008
 20
-5.924999999999998
 11
-5.522500000000008
 21
-5.924999999999998
  0
LINE
  5
11B
100
AcDbEntity
  8
036 Deckenbalken Neu
  6
CONTINUOUS
 62
    1
370
    0
100
AcDbLine
 10
-5.362500000000008
 20
-8.514999999999997
 11
-5.362500000000008
 21
-7.134999999999997
  0
LWPOLYLINE
  5
11C
100
AcDbEntity
  8
0
  6
CONTINUOUS
 62
    7
370
    0
100
AcDbPolyline
 90
    4
 70
    1
 43
0
 10
-3.87250000000001
 20
-5.967499999999999
 10
-2.87250000000001
 20
-5.967499999999999
 10
-2.87250000000001
 20
-7.967499999999999
 10
-3.87250000000001
 20
-7.967499999999999
  0
LWPOLYLINE
  5
11D
100
AcDbEntity
  8
0
  6
CONTINUOUS
 62
    7
370
    0
100
AcDbPolyline
 90
    4
 70
    1
 43
0
 10
-2.77250000000001
 20
-5.967499999999999
 10
-1.77250000000001
 20
-5.967499999999999
 10
-1.77250000000001
 20
-7.967499999999999
 10
-2.77250000000001
 20
-7.967499999999999
  0
LWPOLYLINE
  5
11E
100
AcDbEntity
  8
0
  6
CONTINUOUS
 62
    7
370
    0
100
AcDbPolyline
 90
    4
 70
    1
 43
0
 10
-1.67250000000001
 20
-5.967499999999999
 10
-0.6725000000000096
 20
-5.967499999999999
 10
-0.6725000000000096
 20
-7.967499999999999
 10
-1.67250000000001
 20
-7.967499999999999
  0
LWPOLYLINE
  5
11F
100
AcDbEntity
  8
0
  6
CONTINUOUS
 62
  256
370
   13
100
AcDbPolyline
 90
    2
 70
    0
 43
0
 10
-3.976696255794427
 20
-3.69981754529248
 10
-0.6200000000000138
 20
-3.69981754529248
  0
LWPOLYLINE
  5
120
100
AcDbEntity
  8
0
  6
CONTINUOUS
 62
  256
370
   13
100
AcDbPolyline
 90
    4
 70
    1
 43
0
 10
-3.522263893782211
 20
-5.24981754529248
 10
-2.472263893782211
 20
-5.24981754529248
 10
-2.472263893782211
 20
-4.64981754529248
 10
-3.522263893782211
 20
-4.64981754529248
  0
LWPOLYLINE
  5
121
100
AcDbEntity
  8
035 Decken Neu
  6
CONTINUOUS
 62
  256
370
    0
100
AcDbPolyline
 90
    4
 70
    1
 43
0
 10
-3.922263893782211
 20
-5.29981754529248
 10
-0.6200000000000094
 20
-5.29981754529248
 10
-0.6200000000000094
 20
-1.909999999999999
 10
-4.037586253645161
 20
-1.909999999999997
  0
LWPOLYLINE
  5
122
100
AcDbEntity
  8
080 Raumdefinitionen innen Kontur
  6
CONTINUOUS
 62
  256
370
    0
100
AcDbPolyline
 90
    4
 70
    1
 43
0
 10
-2.52
 20
-0.3999999999999997
 10
-2.52
 20
-1.515
 10
-0.3300000000000003
 20
-1.515
 10
-0.3300000000000003
 20
-0.3999999999999997
  0
LINE
  5
123
100
AcDbEntity
  8
036 Deckenbalken Neu
  6
CONTINUOUS
 62
  256
370
    0
100
AcDbLine
 10
-5.4425
 20
-8.515000000000001
 11
-5.4425
 21
-7.135
  0
LINE
  5
124
100
AcDbEntity
  8
036 Deckenbalken Neu
  6
CONTINUOUS
 62
  256
370
    0
100
AcDbLine
 10
-5.3625
 20
-10.455
 11
-5.3625
 21
-5.925
  0
LINE
  5
125
100
AcDbEntity
  8
035 Decken Neu
  6
CONTINUOUS
 62
    7
370
    0
100
AcDbLine
 10
-5.5725
 20
-7.695
 11
-5.5725
 21
-7.955
  0
LWPOLYLINE
  5
126
100
AcDbEntity
  8
035 Decken Neu
  6
CONTINUOUS
 62
  256
370
    0
100
AcDbPolyline
 90
    4
 70
    1
 43
0
 10
-5.742500000000008
 20
-8.124999999999998
 10
-5.142500000000008
 20
-8.124999999999998
 10
-5.142500000000008
 20
-7.524999999999997
 10
-5.742500000000008
 20
-7.524999999999997
  0
LWPOLYLINE
  5
127
100
AcDbEntity
  8
035 Decken Neu
  6
CONTINUOUS
 62
  256
370
    0
100
AcDbPolyline
 90
    4
 70
    1
 43
0
 10
-5.572500000000008
 20
-7.954999999999997
 10
-5.312500000000008
 20
-7.954999999999997
 10
-5.312500000000008
 20
-7.694999999999998
 10
-5.572500000000008
 20
-7.694999999999998
  0
LWPOLYLINE
  5
128
100
AcDbEntity
  8
020 Stützen Neu
  6
CONTINUOUS
 62
  256
370
   18
100
AcDbPolyline
 90
    4
 70
    1
 43
0
 10
-5.522500000000008
 20
-7.904999999999998
 10
-5.362500000000008
 20
-7.904999999999998
 10
-5.362500000000008
 20
-7.744999999999997
 10
-5.522500000000008
 20
-7.744999999999997
  0
LINE
  5
129
100
AcDbEntity
  8
036 Deckenbalken Neu
  6
CONTINUOUS
 62
  256
370
    0
100
AcDbLine
 10
-5.5225
 20
-8.515000000000001
 11
-5.5225
 21
-7.135
  0
LINE
  5
12A
100
AcDbEntity
  8
036 Deckenbalken Neu
  6
CONTINUOUS
 62
  256
370
    0
100
AcDbLine
 10
-5.3625
 20
-8.515000000000001
 11
-5.5225
 21
-8.515000000000001
  0
LINE
  5
12B
100
AcDbEntity
  8
036 Deckenbalken Neu
  6
CONTINUOUS
 62
  256
370
    0
100
AcDbLine
 10
-5.4425
 20
-10.455
 11
-5.4425
 21
-5.925
  0
LINE
  5
12C
100
AcDbEntity
  8
036 Deckenbalken Neu
  6
CONTINUOUS
 62
  256
370
    0
100
AcDbLine
 10
-5.5225
 20
-10.455
 11
-5.5225
 21
-5.925
  0
LWPOLYLINE
  5
12D
100
AcDbEntity
  8
035 Decken Neu
  6
CONTINUOUS
 62
  256
370
    0
100
AcDbPolyline
 90
    4
 70
    1
 43
0
 10
-5.522500000000008
 20
-10.45499999999999
 10
-5.270000000000011
 20
-10.45499999999999
 10
-5.270000000000011
 20
-10.195
 10
-5.522500000000008
 20
-10.195
  0
LWPOLYLINE
  5
12E
100
AcDbEntity
  8
020 Stützen Neu
  6
CONTINUOUS
 62
  256
370
   18
100
AcDbPolyline
 90
    4
 70
    1
 43
0
 10
-5.522500000000008
 20
-10.455
 10
-5.362500000000008
 20
-10.455
 10
-5.362500000000008
 20
-10.295
 10
-5.522500000000008
 20
-10.295
  0
LWPOLYLINE
  5
12F
100
AcDbEntity
  8
035 Decken Neu
  6
CONTINUOUS
 62
  256
370
    0
100
AcDbPolyline
 90
    4
 70
    1
 43
0
 10
-8.205000000000009
 20
-10.455
 10
-4.315000000000011
 20
-10.455
 10
-4.315000000000011
 20
-5.924999999999999
 10
-8.205000000000009
 20
-5.924999999999999
  0
LINE
  5
130
100
AcDbEntity
  8
036 Deckenbalken Neu
  6
CONTINUOUS
 62
  256
370
    0
100
AcDbLine
 10
-5.3625
 20
-7.135
 11
-5.5225
 21
-7.135
  0
LWPOLYLINE
  5
131
100
AcDbEntity
  8
035 Decken Neu
  6
CONTINUOUS
 62
  256
370
    0
100
AcDbPolyline
 90
    4
 70
    1
 43
0
 10
-5.742500000000008
 20
-6.305
 10
-5.142500000000008
 20
-6.305
 10
-5.142500000000008
 20
-5.924999999999998
 10
-5.742500000000008
 20
-5.924999999999998
  0
LWPOLYLINE
  5
132
100
AcDbEntity
  8
035 Decken Neu
  6
CONTINUOUS
 62
  256
370
    0
100
AcDbPolyline
 90
    4
 70
    1
 43
0
 10
-5.572500000000008
 20
-6.134999999999998
 10
-5.312500000000008
 20
-6.134999999999998
 10
-5.312500000000008
 20
-5.924999999999998
 10
-5.572500000000008
 20
-5.924999999999998
  0
LWPOLYLINE
  5
133
100
AcDbEntity
  8
020 Stützen Neu
  6
CONTINUOUS
 62
  256
370
   18
100
AcDbPolyline
 90
    4
 70
    1
 43
0
 10
-5.522500000000008
 20
-6.084999999999998
 10
-5.362500000000008
 20
-6.084999999999998
 10
-5.362500000000008
 20
-5.924999999999998
 10
-5.522500000000008
 20
-5.924999999999998
  0
LWPOLYLINE
  5
134
100
AcDbEntity
  8
035 Decken Neu
  6
CONTINUOUS
 62
  256
370
    0
100
AcDbPolyline
 90
    6
 70
    1
 43
0
 10
-8.225000000000007
 20
-5.299999999999998
 10
-5.1791630969178
 20
-5.29981754529248
 10
-5.1791630969178
 20
-5.07981754529248
 10
-4.365000000000009
 20
-5.07981754529248
 10
-4.472837910086279
 20
-1.909999999999997
 10
-8.225000000000007
 20
-1.909999999999997
  0
LINE
  5
135
100
AcDbEntity
  8
020 Stützen Neu
  6
CONTINUOUS
 62
  256
370
   18
100
AcDbLine
 10
-5.3625
 20
-5.925
 11
-5.5225
 21
-5.925
  0
LINE
  5
136
100
AcDbEntity
  8
080 Raumdefinitionen innen Kontur
  6
CONTINUOUS
 62
  256
370
    0
100
AcDbLine
 10
-5.745
 20
-5.925
 11
-5.62916
 21
-5.3
  0
LINE
  5
137
100
AcDbEntity
  8
080 Raumdefinitionen innen Kontur
  6
CONTINUOUS
 62
    7
370
    0
100
AcDbLine
 10
-4.365
 20
-5.07982
 11
-4.4616
 21
-1.91
  0
LWPOLYLINE
  5
138
100
AcDbEntity
  8
080 Raumdefinitionen innen Kontur
  6
CONTINUOUS
 62
  256
370
    0
100
AcDbPolyline
 90
   10
 70
    1
 43
0
 10
-8.225000000000009
 20
-1.909999999999997
 10
-8.225000000000009
 20
-5.299999999999998
 10
-6.976757734350593
 20
-5.299999999999998
 10
-6.705000000000009
 20
-5.924999999999998
 10
-5.74500000000001
 20
-5.924999999999998
 10
-5.6291630969178
 20
-5.299999999999998
 10
-5.1791630969178
 20
-5.29981754529248
 10
-5.1791630969178
 20
-5.07981754529248
 10
-4.365000000000009
 20
-5.07981754529248
 10
-4.461602778048511
 20
-1.909999999999997
  0
LWPOLYLINE
  5
139
100
AcDbEntity
  8
080 Raumdefinitionen innen Kontur
  6
CONTINUOUS
 62
  256
370
    0
100
AcDbPolyline
 90
    4
 70
    1
 43
0
 10
-4.037586253645161
 20
-1.909999999999997
 10
-3.922263893782211
 20
-5.29981754529248
 10
-0.6200000000000134
 20
-5.299999999999999
 10
-0.6200000000000134
 20
-1.909999999999997
  0
LWPOLYLINE
  5
13A
100
AcDbEntity
  8
080 Raumdefinitionen innen Kontur
  6
CONTINUOUS
 62
  256
370
    0
100
AcDbPolyline
 90
    4
 70
    1
 43
0
 10
-8.205000000000009
 20
-5.924999999999998
 10
-8.205000000000009
 20
-10.455
 10
-4.31500000000001
 20
-10.455
 10
-4.31500000000001
 20
-5.924999999999998
  0
LWPOLYLINE
  5
13B
100
AcDbEntity
  8
080 Raumdefinitionen innen Kontur
  6
ByLayer
 62
  256
370
   -1
100
AcDbPolyline
 90
    4
 70
    1
 43
0
 10
-3.915000000000011
 20
-5.924999999999999
 10
-3.915000000000011
 20
-10.455
 10
-0.6200000000000142
 20
-10.455
 10
-0.6200000000000142
 20
-5.924999999999999
  0
ENDSEC
  0
SECTION
  2
OBJECTS
  0
DICTIONARY
  5
C
330
0
100
AcDbDictionary
281
    1
  3
ACAD_GROUP
350
D
  0
DICTIONARY
  5
D
330
C
100
AcDbDictionary
281
    1
  0
PLOTSETTINGS
  5
13C
100
AcDbPlotSettings
  6
1x1
 40
0
 41
0
 42
0
 43
0
  0
ENDSEC
  0
EOF
